<?xml version="1.0" standalone="no"?>
<!DOCTYPE svg PUBLIC "-//W3C//DTD SVG 20010904//EN"
 "http://www.w3.org/TR/2001/REC-SVG-20010904/DTD/svg10.dtd">
<svg version="1.0" xmlns="http://www.w3.org/2000/svg"
 width="260.000000pt" height="260.000000pt" viewBox="0 0 260.000000 260.000000"
 preserveAspectRatio="xMidYMid meet">
<metadata>
Created by potrace 1.14, written by Peter Selinger 2001-2017
</metadata>
<g transform="translate(0.000000,260.000000) scale(0.100000,-0.100000)"
fill="#000000" stroke="none">
<path d="M1990 2566 c-16 -16 -12 -44 8 -54 9 -5 50 -10 90 -10 41 0 76 -2 78
-4 2 -2 -7 -15 -19 -30 -30 -34 -140 -158 -152 -172 -6 -6 -67 -74 -135 -151
-69 -77 -134 -149 -145 -161 -11 -12 -33 -36 -49 -55 -38 -44 -169 -192 -222
-249 -23 -25 -57 -63 -76 -84 l-35 -40 -72 50 c-208 144 -283 194 -289 194
-16 -1 -36 -26 -203 -250 -230 -309 -221 -297 -214 -319 6 -20 36 -33 52 -22
5 3 81 103 168 221 87 118 170 229 184 247 l25 31 60 -42 c34 -24 112 -79 175
-124 87 -62 118 -79 131 -72 9 5 45 41 81 81 35 39 75 84 88 98 13 14 49 55
80 90 31 35 65 74 76 85 11 12 110 122 220 246 215 242 243 274 299 335 l36
40 0 -75 c0 -46 5 -81 12 -88 17 -17 46 -15 56 6 11 21 10 267 -1 278 -12 12
-296 11 -307 0z"/>
<path d="M197 2085 c-11 -5 -28 -21 -38 -35 -18 -24 -19 -67 -20 -827 -1 -801
-1 -803 20 -837 12 -19 35 -39 53 -45 20 -7 162 -11 409 -11 296 0 379 -3 380
-12 4 -54 -4 -163 -14 -179 -16 -25 -39 -32 -115 -34 -74 -1 -101 -19 -83 -54
12 -21 13 -21 512 -21 l500 0 8 22 c15 38 -8 50 -93 52 -107 2 -117 14 -121
135 l-2 91 398 0 399 0 32 29 33 29 3 811 c2 724 1 815 -13 842 -26 49 -57 56
-238 54 -89 -2 -167 -3 -173 -4 -18 -2 -25 -30 -14 -51 9 -17 25 -18 177 -20
92 0 171 -4 176 -9 6 -6 11 -880 7 -1288 l0 -43 -65 0 -65 0 0 564 c0 436 -3
567 -12 572 -22 14 -241 12 -263 -1 -20 -12 -20 -23 -20 -574 l0 -561 -81 0
-81 0 1 214 c0 163 -3 218 -13 230 -11 13 -36 16 -135 16 -66 0 -128 -4 -136
-10 -12 -7 -14 -46 -15 -229 l0 -220 -69 -3 c-37 -2 -73 0 -79 4 -9 5 -12 89
-12 288 0 236 -3 283 -15 290 -8 6 -70 10 -136 10 -95 0 -124 -3 -134 -15 -9
-10 -12 -90 -12 -295 l-1 -280 -78 0 c-44 0 -79 3 -80 8 -1 4 -2 60 -2 125 -2
98 -5 121 -19 131 -25 18 -257 14 -269 -5 -5 -8 -9 -69 -9 -137 l0 -122 -182
2 -183 3 0 78 c0 62 3 77 15 78 8 0 54 0 102 0 66 -1 90 2 102 15 18 18 19 23
6 44 -7 11 -33 15 -117 15 l-108 1 -1 65 c0 35 2 69 4 75 2 7 39 12 104 12 98
1 128 10 128 37 0 29 -33 40 -129 41 -53 1 -98 2 -101 3 -3 0 -6 34 -5 73 l0
73 95 1 c130 2 127 1 133 26 11 39 -8 47 -121 50 l-106 3 -1 70 0 70 108 5
c81 4 110 9 117 20 13 20 12 26 -5 44 -12 11 -38 15 -109 14 -52 0 -99 2 -104
6 -7 4 -9 96 -3 139 1 4 48 7 105 7 117 0 141 11 114 52 -14 21 -23 22 -119
23 l-104 0 1 92 c0 51 2 95 5 98 3 2 322 5 709 5 488 1 708 4 717 12 17 13 17
44 1 55 -20 12 -1427 11 -1451 -2z m2180 -1488 c11 -7 10 -173 -1 -185 -13
-13 -2127 -9 -2145 4 -12 9 -16 32 -17 95 -2 83 -1 84 24 89 38 7 2127 4 2139
-3z"/>
<path d="M1270 525 c-6 -8 -9 -23 -5 -35 8 -25 51 -27 64 -2 20 38 -31 71 -59
37z"/>
</g>
</svg>
